<svg xmlns="http://www.w3.org/2000/svg" width="500" height="700" viewBox="0 0 500 700"><defs><linearGradient id="bg" x1="0" y1="0" x2="1" y2="1"><stop stop-color="#295b66"/><stop offset="1" stop-color="#5c9d8c"/></linearGradient><linearGradient id="panel" x1="0" y1="0" x2="0.8" y2="1"><stop stop-color="#fff4d8"/><stop offset="1" stop-color="#efd39c"/></linearGradient></defs><rect width="500" height="700" fill="url(#bg)"/><circle cx="48" cy="115" r="5" fill="#fff4d8" opacity=".6"/><circle cx="445" cy="175" r="7" fill="#fff4d8" opacity=".55"/><circle cx="74" cy="410" r="4" fill="#fff4d8" opacity=".5"/><circle cx="423" cy="450" r="5" fill="#fff4d8" opacity=".65"/><path d="M0 459q126-48 250 0t250 0v241H0z" fill="#162941" opacity=".22"/><rect x="34" y="34" width="432" height="632" rx="28" fill="none" stroke="#fff4d8" stroke-opacity=".45" stroke-width="3"/><text x="250" y="83" text-anchor="middle" fill="#fff2cf" font-family="Georgia,serif" font-size="16" font-weight="bold" letter-spacing="3">BOOKSHELF / ORIGINAL EDITION</text><circle cx="250" cy="280" r="154" fill="#17283a" opacity=".2"/><g transform="translate(150 170)" stroke="#fff3d2" stroke-width="7" stroke-linecap="round" stroke-linejoin="round"><path d="M51 177v-42h26v42m14 0V99h26v78m14 0V68h26v109" fill="#79d0bd"/><path d="M48 179h103"/><circle cx="133" cy="91" r="31" fill="#f4d77e"/><path d="M155 113l23 25" stroke="#f6e8c8" stroke-width="12" stroke-linecap="round"/><path d="M63 120l18-18 17 8 27-34" fill="none" stroke="#fff0bf" stroke-width="6"/></g><g transform="translate(177 304)" stroke="#34445d" stroke-width="5" stroke-linecap="round" stroke-linejoin="round"><ellipse cx="73" cy="177" rx="57" ry="10" fill="#142b40" opacity=".28" stroke="none"/><path d="M49 124l-9 37m58-37 11 37M40 161h16m46 0h16" fill="none" stroke="#f3d99b" stroke-width="12"/><rect x="34" y="73" width="78" height="67" rx="23" fill="#f4e6c5"/><rect x="42" y="82" width="62" height="39" rx="15" fill="#55a99d"/><circle cx="60" cy="99" r="6" fill="#fff0a4" stroke="none"/><circle cx="86" cy="99" r="6" fill="#fff0a4" stroke="none"/><path d="M61 111q12 10 24 0" fill="none" stroke="#fff0a4" stroke-width="4"/><path d="M73 72V52" fill="none" stroke="#f3d99b" stroke-width="6"/><circle cx="73" cy="46" r="9" fill="#ef9277"/><path d="M34 91L18 104v28m94-41 16 14v28" fill="none" stroke="#f4e6c5" stroke-width="12"/><circle cx="18" cy="135" r="7" fill="#f3d99b" stroke="none"/><circle cx="128" cy="135" r="7" fill="#f3d99b" stroke="none"/><rect x="62" y="124" width="23" height="11" rx="5" fill="#f3d99b"/></g><path d="M70 476h360" stroke="#fff3d2" stroke-opacity=".65" stroke-width="2"/><text text-anchor="middle" fill="#fff8e8" font-family="Georgia,serif" font-size="31" font-weight="bold"><tspan x="250" y="545">Big Data Analytics</tspan></text><text x="250" y="630" text-anchor="middle" fill="#fff2cf" font-family="Arial,sans-serif" font-size="16" letter-spacing="4">READ / THINK / DISCOVER</text><path d="M180 648h140" stroke="#fff2cf" stroke-opacity=".65" stroke-width="2"/></svg>
